<svg id="Layer_1" height="512" viewBox="0 0 128 128" width="512" xmlns="http://www.w3.org/2000/svg" data-name="Layer 1"><path d="m27.083 16.167h16.333v16.333h-16.333z" fill="#5a5a5a"/><path d="m43.417 16.167h16.333v16.333h-16.333z" fill="#deecf1"/><path d="m59.75 16.167h16.333v16.333h-16.333z" fill="#5a5a5a"/><path d="m76.083 16.167h16.333v16.333h-16.333z" fill="#c7e2e7"/><path d="m92.417 16.167h16.333v16.333h-16.333z" fill="#444"/><path d="m27.083 32.5h16.333v16.333h-16.333z" fill="#deecf1"/><path d="m43.417 32.5h16.333v16.333h-16.333z" fill="#5a5a5a"/><path d="m59.75 32.5h16.333v16.333h-16.333z" fill="#deecf1"/><path d="m76.083 32.5h16.333v16.333h-16.333z" fill="#444"/><path d="m92.417 32.5h16.333v16.333h-16.333z" fill="#c7e2e7"/><path d="m27.083 48.833h16.333v16.333h-16.333z" fill="#5a5a5a"/><path d="m43.417 48.833h16.333v16.333h-16.333z" fill="#deecf1"/><path d="m59.75 48.833h16.333v16.333h-16.333z" fill="#5a5a5a"/><path d="m76.083 48.833h16.333v16.333h-16.333z" fill="#c7e2e7"/><path d="m92.417 48.833h16.333v16.333h-16.333z" fill="#444"/><path d="m23.167 10a3.917 3.917 0 0 1 3.917 3.917v104.083a0 0 0 0 1 0 0h-7.834a0 0 0 0 1 0 0v-104.083a3.917 3.917 0 0 1 3.917-3.917z" fill="#fbbe2c"/><path d="m19.25 21.896h7.833v4.875h-7.833z" fill="#deecf1"/><path d="m19.25 54.562h7.833v4.875h-7.833z" fill="#deecf1"/><path d="m67.917 32.5h8.167v16.333h-8.167z" fill="#c7e2e7"/><g fill="#444"><path d="m67.917 16.167h8.167v16.333h-8.167z"/><path d="m67.917 48.833h8.167v16.333h-8.167z"/></g></svg>